<?xml version="1.0" encoding="UTF-8" standalone="no"?>
<!-- Created with Inkscape (http://www.inkscape.org/) -->

<svg
   xmlns:dc="http://purl.org/dc/elements/1.1/"
   xmlns:cc="http://creativecommons.org/ns#"
   xmlns:rdf="http://www.w3.org/1999/02/22-rdf-syntax-ns#"
   xmlns:svg="http://www.w3.org/2000/svg"
   xmlns="http://www.w3.org/2000/svg"
   xmlns:xlink="http://www.w3.org/1999/xlink"
   xmlns:sodipodi="http://sodipodi.sourceforge.net/DTD/sodipodi-0.dtd"
   xmlns:inkscape="http://www.inkscape.org/namespaces/inkscape"
   sodipodi:docname="hist_inter.svg"
   height="203.74016"
   width="474.80313"
   inkscape:version="0.91 r13725"
   version="1.1"
   id="svg8968">
  <sodipodi:namedview
     inkscape:snap-intersection-paths="true"
     inkscape:object-paths="true"
     inkscape:guide-bbox="true"
     inkscape:snap-global="true"
     width="13cm"
     showguides="true"
     units="cm"
     inkscape:object-nodes="true"
     inkscape:snap-nodes="true"
     inkscape:current-layer="layer4"
     inkscape:window-maximized="1"
     inkscape:window-y="27"
     inkscape:window-x="73"
     inkscape:cy="153.19162"
     inkscape:cx="197.87592"
     inkscape:zoom="4"
     showgrid="false"
     id="namedview8970"
     inkscape:window-height="1053"
     inkscape:window-width="1847"
     inkscape:pageshadow="2"
     inkscape:pageopacity="0"
     guidetolerance="10"
     gridtolerance="10"
     objecttolerance="10"
     borderopacity="1"
     bordercolor="#666666"
     pagecolor="#ffffff"
     inkscape:snap-smooth-nodes="true"
     inkscape:snap-grids="true">
    <sodipodi:guide
       position="0,0"
       orientation="0,437.59842"
       id="guide4426" />
    <sodipodi:guide
       position="0,276"
       orientation="283.46457,0"
       id="guide4432" />
    <sodipodi:guide
       position="0,0"
       orientation="0,437.59842"
       id="guide4434" />
    <sodipodi:guide
       position="0,283.46457"
       orientation="283.46457,0"
       id="guide4440" />
    <inkscape:grid
       type="xygrid"
       id="grid4373" />
    <sodipodi:guide
       position="300.55024,108.70887"
       orientation="0,1"
       id="guide6558" />
  </sodipodi:namedview>
  <metadata
     id="metadata8974">
    <rdf:RDF>
      <cc:Work
         rdf:about="">
        <dc:format>image/svg+xml</dc:format>
        <dc:type
           rdf:resource="http://purl.org/dc/dcmitype/StillImage" />
        <dc:title />
      </cc:Work>
    </rdf:RDF>
  </metadata>
  <defs
     id="defs8972">
    <pattern
       inkscape:collect="always"
       xlink:href="#pattern8638"
       id="pattern4992"
       patternTransform="translate(-3.515625e-6,-1.9130859e-5)" />
    <marker
       inkscape:stockid="TriangleInL"
       orient="auto"
       refY="0.0"
       refX="0.0"
       id="TriangleInL"
       style="overflow:visible"
       inkscape:isstock="true">
      <path
         id="path4520"
         d="M 5.77,0.0 L -2.88,5.0 L -2.88,-5.0 L 5.77,0.0 z "
         style="fill-rule:evenodd;stroke:#000000;stroke-width:1pt;stroke-opacity:1;fill:#000000;fill-opacity:1"
         transform="scale(-0.8)" />
    </marker>
    <marker
       inkscape:stockid="Arrow1Lstart"
       orient="auto"
       refY="0.0"
       refX="0.0"
       id="marker4715"
       style="overflow:visible"
       inkscape:isstock="true">
      <path
         id="path4717"
         d="M 0.0,0.0 L 5.0,-5.0 L -12.5,0.0 L 5.0,5.0 L 0.0,0.0 z "
         style="fill-rule:evenodd;stroke:#000000;stroke-width:1pt;stroke-opacity:1;fill:#000000;fill-opacity:1"
         transform="scale(0.8) translate(12.5,0)" />
    </marker>
    <marker
       inkscape:stockid="Arrow1Lstart"
       orient="auto"
       refY="0.0"
       refX="0.0"
       id="marker4675"
       style="overflow:visible"
       inkscape:isstock="true">
      <path
         id="path4677"
         d="M 0.0,0.0 L 5.0,-5.0 L -12.5,0.0 L 5.0,5.0 L 0.0,0.0 z "
         style="fill-rule:evenodd;stroke:#000000;stroke-width:1pt;stroke-opacity:1;fill:#000000;fill-opacity:1"
         transform="scale(0.8) translate(12.5,0)" />
    </marker>
    <marker
       inkscape:stockid="Arrow1Lstart"
       orient="auto"
       refY="0.0"
       refX="0.0"
       id="Arrow1Lstart"
       style="overflow:visible"
       inkscape:isstock="true">
      <path
         id="path4387"
         d="M 0.0,0.0 L 5.0,-5.0 L -12.5,0.0 L 5.0,5.0 L 0.0,0.0 z "
         style="fill-rule:evenodd;stroke:#000000;stroke-width:1pt;stroke-opacity:1;fill:#000000;fill-opacity:1"
         transform="scale(0.8) translate(12.5,0)" />
    </marker>
    <linearGradient
       id="linearGradient4151">
      <stop
         style="stop-color:#f1fae5;stop-opacity:1;"
         offset="0"
         id="stop4153" />
      <stop
         id="stop4159"
         offset="1"
         style="stop-color:#75e3bf;stop-opacity:1;" />
    </linearGradient>
    <filter
       id="filter4120"
       inkscape:label="Inner Glow"
       inkscape:menu="Shadows and Glows"
       inkscape:menu-tooltip="Adds a colorizable glow inside"
       color-interpolation-filters="sRGB">
      <feGaussianBlur
         id="feGaussianBlur4122"
         stdDeviation="10"
         result="result8" />
      <feComposite
         id="feComposite4124"
         in2="result8"
         result="result6"
         in="SourceGraphic"
         operator="in" />
      <feComposite
         id="feComposite4126"
         in2="result6"
         operator="in"
         result="result11" />
      <feFlood
         id="feFlood4128"
         result="result10"
         flood-opacity="1"
         flood-color="rgb(35,0,43)" />
      <feBlend
         id="feBlend4130"
         in2="result10"
         mode="normal"
         in="result11"
         result="result12" />
      <feComposite
         id="feComposite4132"
         in2="SourceGraphic"
         result="result2"
         operator="in"
         in="result12" />
    </filter>
    <filter
       id="filter4211"
       inkscape:label="Inner Glow"
       inkscape:menu="Shadows and Glows"
       inkscape:menu-tooltip="Adds a colorizable glow inside"
       color-interpolation-filters="sRGB">
      <feGaussianBlur
         id="feGaussianBlur4213"
         stdDeviation="10"
         result="result8" />
      <feComposite
         id="feComposite4215"
         in2="result8"
         result="result6"
         in="SourceGraphic"
         operator="in" />
      <feComposite
         id="feComposite4217"
         in2="result6"
         operator="in"
         result="result11" />
      <feFlood
         id="feFlood4219"
         result="result10"
         in="result11"
         flood-opacity="1"
         flood-color="rgb(255,222,85)" />
      <feBlend
         id="feBlend4221"
         in2="result10"
         mode="normal"
         in="result11"
         result="result12" />
      <feComposite
         id="feComposite4223"
         in2="SourceGraphic"
         result="result2"
         operator="in"
         in="result12" />
    </filter>
    <filter
       id="filter4225"
       inkscape:label="Inner Glow"
       inkscape:menu="Shadows and Glows"
       inkscape:menu-tooltip="Adds a colorizable glow inside"
       color-interpolation-filters="sRGB">
      <feGaussianBlur
         id="feGaussianBlur4227"
         stdDeviation="10"
         result="result8" />
      <feComposite
         id="feComposite4229"
         in2="result8"
         result="result6"
         in="SourceGraphic"
         operator="in" />
      <feComposite
         id="feComposite4231"
         in2="result6"
         operator="in"
         result="result11" />
      <feFlood
         id="feFlood4233"
         result="result10"
         in="result11"
         flood-opacity="1"
         flood-color="rgb(255,222,85)" />
      <feBlend
         id="feBlend4235"
         in2="result10"
         mode="normal"
         in="result11"
         result="result12" />
      <feComposite
         id="feComposite4237"
         in2="SourceGraphic"
         result="result2"
         operator="in"
         in="result12" />
    </filter>
    <clipPath
       id="clipPath5033"
       clipPathUnits="userSpaceOnUse">
      <path
         inkscape:connector-curvature="0"
         id="path5035"
         d="m 50.137881,39.587357 446.399999,0 0,221.760003 -446.399999,0 0,-221.760003 z" />
    </clipPath>
    <clipPath
       id="clipPath5051"
       clipPathUnits="userSpaceOnUse">
      <path
         inkscape:connector-curvature="0"
         id="path5053"
         d="m 50.137881,39.587357 446.399999,0 0,221.760003 -446.399999,0 0,-221.760003 z" />
    </clipPath>
    <clipPath
       id="clipPath5069"
       clipPathUnits="userSpaceOnUse">
      <path
         inkscape:connector-curvature="0"
         id="path5071"
         d="m 50.137881,39.587357 446.399999,0 0,221.760003 -446.399999,0 0,-221.760003 z" />
    </clipPath>
    <clipPath
       id="clipPath5087"
       clipPathUnits="userSpaceOnUse">
      <path
         inkscape:connector-curvature="0"
         id="path5089"
         d="m 50.137881,39.587357 446.399999,0 0,221.760003 -446.399999,0 0,-221.760003 z" />
    </clipPath>
    <clipPath
       id="clipPath5105"
       clipPathUnits="userSpaceOnUse">
      <path
         inkscape:connector-curvature="0"
         id="path5107"
         d="m 50.137881,39.587357 446.399999,0 0,221.760003 -446.399999,0 0,-221.760003 z" />
    </clipPath>
    <clipPath
       id="clipPath5123"
       clipPathUnits="userSpaceOnUse">
      <path
         inkscape:connector-curvature="0"
         id="path5125"
         d="m 50.137881,39.587357 446.399999,0 0,221.760003 -446.399999,0 0,-221.760003 z" />
    </clipPath>
    <clipPath
       id="clipPath5149"
       clipPathUnits="userSpaceOnUse">
      <path
         inkscape:connector-curvature="0"
         id="path5151"
         d="m 50.137881,39.587357 446.399999,0 0,221.760003 -446.399999,0 0,-221.760003 z" />
    </clipPath>
    <clipPath
       id="clipPath5171"
       clipPathUnits="userSpaceOnUse">
      <path
         inkscape:connector-curvature="0"
         id="path5173"
         d="m 50.137881,39.587357 446.399999,0 0,221.760003 -446.399999,0 0,-221.760003 z" />
    </clipPath>
    <clipPath
       id="clipPath5193"
       clipPathUnits="userSpaceOnUse">
      <path
         inkscape:connector-curvature="0"
         id="path5195"
         d="m 50.137881,39.587357 446.399999,0 0,221.760003 -446.399999,0 0,-221.760003 z" />
    </clipPath>
    <clipPath
       id="clipPath5215"
       clipPathUnits="userSpaceOnUse">
      <path
         inkscape:connector-curvature="0"
         id="path5217"
         d="m 50.137881,39.587357 446.399999,0 0,221.760003 -446.399999,0 0,-221.760003 z" />
    </clipPath>
    <clipPath
       id="clipPath5237"
       clipPathUnits="userSpaceOnUse">
      <path
         inkscape:connector-curvature="0"
         id="path5239"
         d="m 50.137881,39.587357 446.399999,0 0,221.760003 -446.399999,0 0,-221.760003 z" />
    </clipPath>
    <clipPath
       id="clipPath5255"
       clipPathUnits="userSpaceOnUse">
      <path
         inkscape:connector-curvature="0"
         id="path5257"
         d="m 50.137881,39.587357 446.399999,0 0,221.760003 -446.399999,0 0,-221.760003 z" />
    </clipPath>
    <clipPath
       id="clipPath5273"
       clipPathUnits="userSpaceOnUse">
      <path
         inkscape:connector-curvature="0"
         id="path5275"
         d="m 50.137881,39.587357 446.399999,0 0,221.760003 -446.399999,0 0,-221.760003 z" />
    </clipPath>
    <clipPath
       id="clipPath5299"
       clipPathUnits="userSpaceOnUse">
      <path
         inkscape:connector-curvature="0"
         id="path5301"
         d="m 50.137881,39.587357 446.399999,0 0,221.760003 -446.399999,0 0,-221.760003 z" />
    </clipPath>
    <clipPath
       id="clipPath5309"
       clipPathUnits="userSpaceOnUse">
      <path
         inkscape:connector-curvature="0"
         id="path5311"
         d="m 50.137881,39.587357 446.399999,0 0,221.760003 -446.399999,0 0,-221.760003 z" />
    </clipPath>
    <clipPath
       id="clipPath5319"
       clipPathUnits="userSpaceOnUse">
      <path
         inkscape:connector-curvature="0"
         id="path5321"
         d="m 50.137881,39.587357 446.399999,0 0,221.760003 -446.399999,0 0,-221.760003 z" />
    </clipPath>
    <pattern
       patternUnits="userSpaceOnUse"
       width="10"
       height="10"
       patternTransform="translate(115,473.00059)"
       id="pattern4380">
      <path
         inkscape:connector-curvature="0"
         d="M 10,0 0,10 5,10 10,5 Z M 0,0 C 5,0 5,0 5,0 L 0,5 Z"
         style="fill:#55c667;fill-opacity:1;fill-rule:evenodd;stroke:none;stroke-width:1px;stroke-linecap:butt;stroke-linejoin:miter;stroke-opacity:1"
         id="path4377" />
    </pattern>
    <pattern
       patternUnits="userSpaceOnUse"
       width="10"
       height="10.00001"
       patternTransform="translate(115,473.00058)"
       id="pattern8638">
      <g
         id="g8632"
         transform="translate(-115,-473.00058)">
        <path
           style="fill:none;stroke:none"
           d="m 115,473.00058 10,0 0,10 -10,0 z"
           id="rect4383"
           inkscape:connector-curvature="0" />
        <path
           id="path5868"
           style="fill:#55c667;fill-opacity:1;fill-rule:evenodd;stroke:none;stroke-width:1px;stroke-linecap:butt;stroke-linejoin:miter;stroke-opacity:1"
           d="m 125,473.00059 -10,10 5,0 5,-5 z m -10,0 c 5,0 5,0 5,0 l -5,5 z"
           inkscape:connector-curvature="0" />
        <path
           style="fill:#440154;fill-opacity:1;fill-rule:evenodd;stroke:none;stroke-width:1px;stroke-linecap:butt;stroke-linejoin:miter;stroke-opacity:1"
           d="m 115,478.00059 0,5 10,-10 -5,0 z"
           id="path8622"
           inkscape:connector-curvature="0" />
        <path
           style="fill:#440154;fill-opacity:1;fill-rule:evenodd;stroke:none;stroke-width:1px;stroke-linecap:butt;stroke-linejoin:miter;stroke-opacity:1"
           d="m 120,483.00059 5,-5 0,5 -5,0"
           id="path8624"
           inkscape:connector-curvature="0" />
      </g>
    </pattern>
    <pattern
       patternUnits="userSpaceOnUse"
       width="10"
       height="10.00001"
       patternTransform="translate(135.5061,479.71811)"
       id="pattern5018">
      <rect
         id="rect8645"
         y="0"
         x="0"
         height="10.00001"
         width="10"
         style="fill:url(#pattern4992);stroke:none" />
    </pattern>
    <pattern
       patternUnits="userSpaceOnUse"
       width="10.000015"
       height="10.000029"
       patternTransform="translate(135.48833,478.09309)"
       id="pattern5053">
      <g
         transform="translate(-133.73833,-479.71809)"
         id="g5046">
        <rect
           style="fill:none;stroke:none"
           width="10"
           height="10.00001"
           x="133.73834"
           y="479.71811"
           id="rect5021" />
        <rect
           style="fill:none;stroke:none"
           width="10"
           height="10.00001"
           x="133.73833"
           y="479.71811"
           id="rect5027" />
        <path
           style="fill:none;stroke:none"
           d="m 133.73833,479.71809 10,0 0,10 -10,0 z"
           id="path5033"
           inkscape:connector-curvature="0" />
        <path
           id="path5036"
           style="fill:#55c667;fill-opacity:1;fill-rule:evenodd;stroke:none;stroke-width:1px;stroke-linecap:butt;stroke-linejoin:miter;stroke-opacity:1"
           d="m 143.73833,479.7181 -10,10 5,0 5,-5 z m -10,0 c 5,0 5,0 5,0 l -5,5 z"
           inkscape:connector-curvature="0" />
        <path
           inkscape:connector-curvature="0"
           d="m 138.73833,489.7181 5,-5 0,5 -5,0 m -5,-5 0,5 10,-10 -5,0 z"
           style="fill:#440154;fill-opacity:1;fill-rule:evenodd;stroke:none;stroke-width:1px;stroke-linecap:butt;stroke-linejoin:miter;stroke-opacity:1"
           id="path5040" />
      </g>
    </pattern>
  </defs>
  <g
     inkscape:groupmode="layer"
     id="layer4"
     inkscape:label="original"
     style="display:inline"
     transform="translate(0,-499.26043)">
    <g
       style="display:inline;fill:#55c667;fill-opacity:0.49411765;fill-rule:evenodd;stroke:#000000;stroke-opacity:1"
       transform="matrix(0.77537559,0,0,-0.77537559,127.62739,502.48055)"
       id="g4328">
      <g
         style="fill:#55c667;fill-opacity:0.49411765;fill-rule:evenodd;stroke:#000000;stroke-opacity:1"
         clip-path="url(#clipPath5299)"
         id="g4330">
        <path
           sodipodi:nodetypes="czc"
           inkscape:connector-curvature="0"
           id="path4332"
           d="m 49.14878,48.018647 c 122.86659,0 126.35127,122.306723 167.48706,122.306723 41.1358,0 52.05507,-122.306723 167.65239,-122.306723"
           style="fill:#55c667;fill-opacity:0.49411765;fill-rule:evenodd;stroke:#000000;stroke-width:1.5;stroke-linecap:square;stroke-linejoin:round;stroke-miterlimit:10;stroke-dasharray:none;stroke-opacity:1" />
      </g>
    </g>
    <g
       id="g5295"
       transform="matrix(0.77537559,0,0,-0.77537559,22.31011,502.48055)"
       style="display:inline;fill:#440154;fill-opacity:0.49411765;fill-rule:evenodd;stroke:#000000;stroke-opacity:1">
      <g
         id="g5297"
         clip-path="url(#clipPath5299)"
         style="fill:#440154;fill-opacity:0.49411765;fill-rule:evenodd;stroke:#000000;stroke-opacity:1">
        <path
           style="fill:#440154;fill-opacity:0.49411765;fill-rule:evenodd;stroke:#000000;stroke-width:1.5;stroke-linecap:square;stroke-linejoin:round;stroke-miterlimit:10;stroke-dasharray:none;stroke-opacity:1"
           d="m 49.14878,48.018647 c 122.86659,0 126.35127,122.306723 167.48706,122.306723 41.1358,0 52.05507,-122.306723 167.65239,-122.306723"
           id="path5303"
           inkscape:connector-curvature="0"
           sodipodi:nodetypes="czc" />
      </g>
    </g>
    <g
       style="display:inline;opacity:0.5;fill:url(#pattern5053);fill-opacity:1.0;fill-rule:evenodd;stroke:url(#pattern4380);stroke-opacity:1"
       transform="matrix(0.77537559,0,0,-0.77537559,22.31011,684.48055)"
       id="g5836">
      <g
         style="fill:url(#pattern5053);fill-opacity:1.0;fill-rule:evenodd;stroke:url(#pattern4380);stroke-opacity:1"
         clip-path="url(#clipPath5299)"
         id="g5838">
        <path
           style="fill:url(#pattern5053);fill-opacity:1.0;fill-rule:evenodd;stroke:url(#pattern4380);stroke-width:1.16306341;stroke-linecap:square;stroke-linejoin:round;stroke-miterlimit:10;stroke-dasharray:none;stroke-opacity:1"
           d="m 244.19336,135.72852 c -16.31298,18.59505 -39.73997,34.25976 -78.45703,34.25976 l 154.54101,0 c -36.42691,0 -59.44775,-15.66438 -76.08398,-34.25976 z"
           transform="matrix(1.2896976,0,0,-1.2896976,-28.773294,267.25128)"
           id="path5840"
           inkscape:connector-curvature="0" />
      </g>
    </g>
    <g
       id="g5842"
       transform="matrix(0.77537559,0,0,-0.77537559,127.62739,684.48055)"
       style="display:inline;fill:#55c667;fill-opacity:1;fill-rule:evenodd;stroke:#000000;stroke-opacity:1">
      <g
         id="g5844"
         clip-path="url(#clipPath5299)"
         style="fill:#55c667;fill-opacity:1;fill-rule:evenodd;stroke:#000000;stroke-opacity:1" />
    </g>
    <g
       id="g8577"
       transform="matrix(0.77537559,0,0,-0.77537559,127.62739,684.48055)"
       style="display:inline;fill:#55c667;fill-opacity:0.49411765;fill-rule:evenodd;stroke:#000000;stroke-opacity:1">
      <g
         id="g8579"
         clip-path="url(#clipPath5299)"
         style="fill:#55c667;fill-opacity:0.49411765;fill-rule:evenodd;stroke:#000000;stroke-opacity:1">
        <path
           style="fill:#55c667;fill-opacity:0.49411765;fill-rule:evenodd;stroke:#000000;stroke-width:1.16306341;stroke-linecap:square;stroke-linejoin:round;stroke-miterlimit:10;stroke-dasharray:none;stroke-opacity:1"
           d="m 236.19336,233.72852 c 16.63623,18.59538 39.65707,34.25976 76.08398,34.25976 l 105.31836,0 c -89.63134,0 -98.09844,-94.83398 -129.99414,-94.83398 -18.9332,0 -27.58122,33.41402 -51.4082,60.57422 z"
           transform="matrix(1.2896976,0,0,-1.2896976,-154.28315,393.64164)"
           id="path8581"
           inkscape:connector-curvature="0"
           sodipodi:nodetypes="cscsc" />
      </g>
    </g>
    <g
       style="display:inline;fill:#440154;fill-opacity:0.49411765;fill-rule:evenodd;stroke:#000000;stroke-opacity:1"
       transform="matrix(0.77537559,0,0,-0.77537559,14.31011,804.48055)"
       id="g8583">
      <g
         style="fill:#440154;fill-opacity:0.49411765;fill-rule:evenodd;stroke:#000000;stroke-opacity:1"
         clip-path="url(#clipPath5299)"
         id="g8585" />
    </g>
    <g
       id="g8590"
       transform="matrix(0.77537559,0,0,-0.77537559,69.017471,657.3123)"
       style="display:inline;fill:#430053;fill-opacity:0.49411765;fill-rule:evenodd;stroke:#000000;stroke-opacity:1">
      <g
         id="g8592"
         clip-path="url(#clipPath5299)"
         style="fill:#430053;fill-opacity:0.49411765;fill-rule:evenodd;stroke:#000000;stroke-opacity:1"
         transform="translate(-93.851706,-47.554859)">
        <path
           style="fill:#430053;fill-opacity:0.49411765;fill-rule:evenodd;stroke:#000000;stroke-width:1.50000012;stroke-linecap:square;stroke-linejoin:round;stroke-miterlimit:10;stroke-dasharray:none;stroke-opacity:1"
           d="m 250.25036,182.841 c -41.13579,0 -44.62029,-122.307163 -167.486876,-122.307163 l 135.826306,0 c 49.93329,0 80.14704,20.20023 101.18585,44.182223 -31.3378,35.02826 -45.1074,78.12494 -69.52528,78.12494 z"
           id="path8620"
           inkscape:connector-curvature="0"
           sodipodi:nodetypes="scscs" />
      </g>
    </g>
    <g
       style="display:inline;fill:#440154;fill-opacity:0.49411765;fill-rule:evenodd;stroke:#000000;stroke-opacity:1"
       transform="matrix(0.77537559,0,0,-0.77537559,-103.90846,860.16901)"
       id="g8596">
      <g
         style="fill:#440154;fill-opacity:0.49411765;fill-rule:evenodd;stroke:#000000;stroke-opacity:1"
         clip-path="url(#clipPath5299)"
         id="g8598" />
    </g>
    <text
       xml:space="preserve"
       style="font-style:normal;font-weight:normal;font-size:40px;line-height:125%;font-family:sans-serif;letter-spacing:0px;word-spacing:0px;fill:#000000;fill-opacity:1;stroke:none;stroke-width:1px;stroke-linecap:butt;stroke-linejoin:miter;stroke-opacity:1"
       x="77.25"
       y="484.50058"
       id="text8627"
       sodipodi:linespacing="125%"><tspan
         sodipodi:role="line"
         id="tspan8629"
         x="77.25"
         y="484.50058" /></text>
    <rect
       style="stroke:none;fill:url(#pattern5053)"
       width="10.000015"
       height="10.000029"
       x="135.48833"
       y="478.09309"
       id="rect5061" />
  </g>
  <g
     inkscape:groupmode="layer"
     id="layer5"
     inkscape:label="Text"
     style="display:inline"
     transform="translate(0,-499.26043)">
    <text
       xml:space="preserve"
       style="font-style:normal;font-variant:normal;font-weight:normal;font-stretch:normal;font-size:15px;line-height:125%;font-family:'Nimbus Roman No9 L';-inkscape-font-specification:'Nimbus Roman No9 L';letter-spacing:0px;word-spacing:0px;fill:#000000;fill-opacity:1;stroke:none"
       x="207.36975"
       y="746.69489"
       id="text3946"
       sodipodi:linespacing="125%"><tspan
         sodipodi:role="line"
         x="207.36975"
         y="746.69489"
         style="font-size:12px"
         id="tspan20228">Extracellular</tspan></text>
    <g
       id="g5145"
       transform="matrix(0.85238053,0,0,-0.77537559,9.5742455,684.48055)"
       style="fill:#000000;stroke:#000000;stroke-width:2.46012497;stroke-miterlimit:4;stroke-dasharray:none;stroke-opacity:1">
      <g
         id="g5147"
         clip-path="url(#clipPath5149)"
         style="fill:#000000;stroke:#000000;stroke-width:2.46012497;stroke-miterlimit:4;stroke-dasharray:none;stroke-opacity:1">
        <path
           style="fill:#000000;stroke:#000000;stroke-width:2.46012497;stroke-linecap:square;stroke-linejoin:round;stroke-miterlimit:4;stroke-dasharray:none;stroke-opacity:1"
           d="m 50.137881,48.018647 c 148.799999,0 297.599999,0 446.399999,0"
           id="path5153"
           inkscape:connector-curvature="0" />
      </g>
    </g>
  </g>
  <g
     id="g6254"
     transform="translate(102.375,-132.76715)">
    <g
       id="content"
       transform="matrix(0.29105737,0,0,-0.29105737,-50.93504,356.10235)"
       xml:space="preserve"
       stroke-miterlimit="10.433"
       font-style="normal"
       font-variant="normal"
       font-weight="normal"
       font-stretch="normal"
       font-size-adjust="none"
       letter-spacing="normal"
       word-spacing="normal"
       style="font-style:normal;font-variant:normal;font-weight:normal;font-stretch:normal;letter-spacing:normal;word-spacing:normal;text-anchor:start;fill:none;fill-opacity:1;fill-rule:evenodd;stroke:#000000;stroke-linecap:butt;stroke-linejoin:miter;stroke-miterlimit:10.43299961;stroke-dasharray:none;stroke-dashoffset:0;stroke-opacity:1"><path
         d="m 464.92,411.73 -0.19,-0.31 -0.19,-0.29 -0.18,-0.27 -0.19,-0.26 -0.18,-0.25 -0.19,-0.23 -0.19,-0.23 -0.18,-0.2 -0.19,-0.2 -0.18,-0.18 -0.19,-0.17 -0.19,-0.16 -0.19,-0.15 -0.18,-0.14 -0.19,-0.13 -0.19,-0.12 -0.19,-0.11 -0.19,-0.1 -0.19,-0.09 -0.19,-0.09 -0.2,-0.07 -0.19,-0.07 -0.19,-0.06 -0.2,-0.06 -0.2,-0.05 -0.19,-0.04 -0.2,-0.04 -0.2,-0.03 -0.4,-0.05 -0.41,-0.04 c -0.6,-0.04 -1.05,-0.04 -1.05,-0.99 0,-0.3 0.25,-0.55 0.65,-0.55 l 9.27,0 c 0.3,0 0.94,0 0.94,0.95 0,0.55 -0.44,0.59 -0.8,0.59 -1.14,0.1 -2.34,0.5 -2.34,1.75 0,0.6 0.3,1.14 0.7,1.84 l 3.79,6.38 12.5,0 -0.15,1.54 -11.41,0 9.82,16.44 1.59,-16.44 0.15,-1.54 c 0.1,-1.05 0.8,-7.82 0.8,-8.32 0,-1.49 -2.59,-1.65 -3.59,-1.65 -0.7,0 -1.2,0 -1.2,-0.99 0,-0.55 0.6,-0.55 0.7,-0.55 l 11.86,0 c 0.3,0 0.89,0 0.89,1 0,0.54 -0.49,0.54 -1.14,0.54 -3.09,0 -3.09,0.35 -3.24,1.8 l -3.04,31.13 c -0.1,1 -0.1,1.2 -0.94,1.2 -0.8,0 -1,-0.35 -1.3,-0.85 z"
         id="path6257"
         inkscape:connector-curvature="0"
         style="fill:#000000;stroke-width:0" /></g>  </g>
  <g
     id="g6453"
     transform="translate(210.5,-133)">
    <g
       word-spacing="normal"
       letter-spacing="normal"
       font-size-adjust="none"
       font-stretch="normal"
       font-weight="normal"
       font-variant="normal"
       font-style="normal"
       stroke-miterlimit="10.433"
       xml:space="preserve"
       transform="matrix(0.29105737,0,0,-0.29105737,-50.93504,356.10235)"
       id="g6455"
       style="font-style:normal;font-variant:normal;font-weight:normal;font-stretch:normal;letter-spacing:normal;word-spacing:normal;text-anchor:start;fill:none;fill-opacity:1;fill-rule:evenodd;stroke:#000000;stroke-linecap:butt;stroke-linejoin:miter;stroke-miterlimit:10.43299961;stroke-dasharray:none;stroke-dashoffset:0;stroke-opacity:1"><path
         id="path6457"
         d="m 463.97,409.89 -0.05,-0.18 -0.04,-0.17 -0.04,-0.16 -0.05,-0.15 -0.04,-0.15 -0.05,-0.13 -0.04,-0.13 -0.06,-0.12 -0.05,-0.11 -0.06,-0.11 -0.06,-0.1 -0.08,-0.09 -0.07,-0.09 -0.09,-0.07 -0.09,-0.08 -0.11,-0.06 -0.11,-0.07 -0.13,-0.05 -0.13,-0.05 -0.15,-0.05 -0.16,-0.04 -0.09,-0.02 -0.09,-0.02 -0.09,-0.01 -0.1,-0.02 -0.1,-0.01 -0.1,-0.01 -0.11,-0.02 -0.12,-0.01 -0.11,-0.01 -0.13,-0.01 -0.12,-0.01 -0.13,0 -0.14,-0.01 -0.14,-0.01 -0.14,0 -0.15,-0.01 -0.16,0 -0.16,0 -0.16,0 -0.17,-0.01 -0.18,0 -0.18,0 c -0.85,0 -1.35,0 -1.35,-0.99 0,-0.55 0.45,-0.55 1.35,-0.55 l 17.78,0 c 7.87,0 13.75,5.88 13.75,10.76 0,3.59 -2.89,6.47 -7.72,7.03 5.18,0.94 10.41,4.62 10.41,9.36 0,3.69 -3.29,6.87 -9.27,6.87 l -0.69,-1.54 c 4.38,0 5.42,-2.94 5.42,-5.13 0,-4.39 -4.28,-9.12 -10.35,-9.12 l -7.28,0 -0.3,-1.09 9.42,0 c 4.78,0 5.73,-3.69 5.73,-5.83 0,-4.93 -4.44,-9.77 -10.32,-9.77 l -6.77,0 c -0.7,0 -0.8,0 -1.09,0.05 -0.5,0.05 -0.65,0.11 -0.65,0.5 0,0.15 0,0.25 0.25,1.15 l 3.43,13.9 0.3,1.09 3.09,12.36 c 0.45,1.74 0.55,1.89 2.69,1.89 l 6.43,0 0.69,1.54 -16.73,0 c -0.95,0 -1.45,0 -1.45,-0.99 0,-0.55 0.45,-0.55 1.4,-0.55 0.1,0 1.04,0 1.89,-0.1 0.89,-0.1 1.34,-0.15 1.34,-0.8 0,-0.2 -0.05,-0.35 -0.2,-0.94 z"
         inkscape:connector-curvature="0"
         style="fill:#000000;stroke-width:0" /></g>  </g>
  <g
     id="g8452"
     transform="translate(143,-96)">
    <g
       word-spacing="normal"
       letter-spacing="normal"
       font-size-adjust="none"
       font-stretch="normal"
       font-weight="normal"
       font-variant="normal"
       font-style="normal"
       stroke-miterlimit="10.433"
       xml:space="preserve"
       transform="matrix(0.29105737,0,0,-0.29105737,-50.93504,356.10235)"
       id="g8454"
       style="font-style:normal;font-variant:normal;font-weight:normal;font-stretch:normal;letter-spacing:normal;word-spacing:normal;text-anchor:start;fill:none;fill-opacity:1;fill-rule:evenodd;stroke:#000000;stroke-linecap:butt;stroke-linejoin:miter;stroke-miterlimit:10.43299961;stroke-dasharray:none;stroke-dashoffset:0;stroke-opacity:1"><path
         id="path8456"
         d="m 464.92,411.73 -0.19,-0.31 -0.19,-0.29 -0.18,-0.27 -0.19,-0.26 -0.18,-0.25 -0.19,-0.23 -0.19,-0.23 -0.18,-0.2 -0.19,-0.2 -0.18,-0.18 -0.19,-0.17 -0.19,-0.16 -0.19,-0.15 -0.18,-0.14 -0.19,-0.13 -0.19,-0.12 -0.19,-0.11 -0.19,-0.1 -0.19,-0.09 -0.19,-0.09 -0.2,-0.07 -0.19,-0.07 -0.19,-0.06 -0.2,-0.06 -0.2,-0.05 -0.19,-0.04 -0.2,-0.04 -0.2,-0.03 -0.4,-0.05 -0.41,-0.04 c -0.6,-0.04 -1.05,-0.04 -1.05,-0.99 0,-0.3 0.25,-0.55 0.65,-0.55 l 9.27,0 c 0.3,0 0.94,0 0.94,0.95 0,0.55 -0.44,0.59 -0.8,0.59 -1.14,0.1 -2.34,0.5 -2.34,1.75 0,0.6 0.3,1.14 0.7,1.84 l 3.79,6.38 12.5,0 -0.15,1.54 -11.41,0 9.82,16.44 1.59,-16.44 0.15,-1.54 c 0.1,-1.05 0.8,-7.82 0.8,-8.32 0,-1.49 -2.59,-1.65 -3.59,-1.65 -0.7,0 -1.2,0 -1.2,-0.99 0,-0.55 0.6,-0.55 0.7,-0.55 l 11.86,0 c 0.3,0 0.89,0 0.89,1 0,0.54 -0.49,0.54 -1.14,0.54 -3.09,0 -3.09,0.35 -3.24,1.8 l -3.04,31.13 c -0.1,1 -0.1,1.2 -0.94,1.2 -0.8,0 -1,-0.35 -1.3,-0.85 z"
         inkscape:connector-curvature="0"
         style="fill:#000000;stroke-width:0" /><path
         id="path8458"
         d="m 534.44,424.93 -0.02,0.7 -0.07,0.67 -0.11,0.65 -0.14,0.62 -0.19,0.6 -0.22,0.57 -0.25,0.55 -0.29,0.53 -0.32,0.5 -0.35,0.48 -0.38,0.46 -0.4,0.43 -0.43,0.41 -0.45,0.39 -0.48,0.37 -0.49,0.34 -0.52,0.32 -0.52,0.3 -0.55,0.27 -0.55,0.26 -0.57,0.23 -0.58,0.22 -0.59,0.19 -0.59,0.17 -0.6,0.15 -0.6,0.13 -0.61,0.1 -0.6,0.09 -0.6,0.07 -0.6,0.05 -0.6,0.03 -0.58,0.01 c -6.48,0 -13.85,-3.49 -13.85,-10.81 l 0,-18.28 c 0,-0.9 0,-1.8 0.99,-1.8 1,0 1,0.9 1,1.8 l 0,18.03 c 0,7.47 8.12,9.07 11.86,9.07 2.24,0 5.38,-0.45 8.02,-2.15 3.83,-2.44 3.83,-5.63 3.83,-6.97 l 0,-17.98 c 0,-0.9 0,-1.8 1,-1.8 1,0 1,0.9 1,1.8 z"
         inkscape:connector-curvature="0"
         style="fill:#000000;stroke-width:0" /><path
         id="path8460"
         d="m 555.97,409.89 -0.05,-0.18 -0.04,-0.17 -0.04,-0.16 -0.05,-0.15 -0.04,-0.15 -0.05,-0.13 -0.04,-0.13 -0.06,-0.12 -0.05,-0.11 -0.06,-0.11 -0.06,-0.1 -0.08,-0.09 -0.07,-0.09 -0.09,-0.07 -0.09,-0.08 -0.11,-0.06 -0.11,-0.07 -0.13,-0.05 -0.13,-0.05 -0.15,-0.05 -0.16,-0.04 -0.09,-0.02 -0.09,-0.02 -0.09,-0.01 -0.1,-0.02 -0.1,-0.01 -0.1,-0.01 -0.11,-0.02 -0.12,-0.01 -0.11,-0.01 -0.13,-0.01 -0.12,-0.01 -0.13,0 -0.14,-0.01 -0.14,-0.01 -0.14,0 -0.15,-0.01 -0.16,0 -0.16,0 -0.16,0 -0.17,-0.01 -0.18,0 -0.18,0 c -0.85,0 -1.35,0 -1.35,-0.99 0,-0.55 0.45,-0.55 1.35,-0.55 l 17.78,0 c 7.87,0 13.75,5.88 13.75,10.76 0,3.59 -2.89,6.47 -7.72,7.03 5.18,0.94 10.41,4.62 10.41,9.36 0,3.69 -3.29,6.87 -9.26,6.87 l -0.7,-1.54 c 4.38,0 5.42,-2.94 5.42,-5.13 0,-4.39 -4.28,-9.12 -10.35,-9.12 l -7.28,0 -0.3,-1.09 9.42,0 c 4.78,0 5.73,-3.69 5.73,-5.83 0,-4.93 -4.44,-9.77 -10.32,-9.77 l -6.77,0 c -0.7,0 -0.8,0 -1.09,0.05 -0.5,0.05 -0.65,0.11 -0.65,0.5 0,0.15 0,0.25 0.25,1.15 l 3.43,13.9 0.3,1.09 3.09,12.36 c 0.45,1.74 0.55,1.89 2.69,1.89 l 6.43,0 0.7,1.54 -16.74,0 c -0.95,0 -1.45,0 -1.45,-0.99 0,-0.55 0.45,-0.55 1.39,-0.55 0.11,0 1.05,0 1.9,-0.1 0.9,-0.1 1.34,-0.15 1.34,-0.8 0,-0.2 -0.05,-0.35 -0.19,-0.94 z"
         inkscape:connector-curvature="0"
         style="fill:#000000;stroke-width:0" /></g>  </g>
</svg>
