<?xml version="1.0" encoding="UTF-8" standalone="no"?>
<!-- Created with Inkscape (http://www.inkscape.org/) -->

<svg
   xmlns:osb="http://www.openswatchbook.org/uri/2009/osb"
   xmlns:dc="http://purl.org/dc/elements/1.1/"
   xmlns:cc="http://creativecommons.org/ns#"
   xmlns:rdf="http://www.w3.org/1999/02/22-rdf-syntax-ns#"
   xmlns:svg="http://www.w3.org/2000/svg"
   xmlns="http://www.w3.org/2000/svg"
   xmlns:xlink="http://www.w3.org/1999/xlink"
   xmlns:sodipodi="http://sodipodi.sourceforge.net/DTD/sodipodi-0.dtd"
   xmlns:inkscape="http://www.inkscape.org/namespaces/inkscape"
   width="744.09448819"
   height="1052.3622047"
   id="svg2"
   version="1.1"
   inkscape:version="0.48.4 r9939"
   sodipodi:docname="neuron_structure.svg">
  <defs
     id="defs4">
    <linearGradient
       id="linearGradient3782">
      <stop
         style="stop-color:#2fbc78;stop-opacity:0;"
         offset="0"
         id="stop3784" />
      <stop
         style="stop-color:#2fbc78;stop-opacity:0.66923076;"
         offset="1"
         id="stop3786" />
    </linearGradient>
    <inkscape:perspective
       sodipodi:type="inkscape:persp3d"
       inkscape:vp_x="0 : 526.18109 : 1"
       inkscape:vp_y="0 : 1000 : 0"
       inkscape:vp_z="744.09448 : 526.18109 : 1"
       inkscape:persp3d-origin="372.04724 : 350.78739 : 1"
       id="perspective4649" />
    <linearGradient
       id="linearGradient4593"
       osb:paint="gradient">
      <stop
         style="stop-color:#800080;stop-opacity:1;"
         offset="0"
         id="stop4595" />
      <stop
         style="stop-color:#800080;stop-opacity:0;"
         offset="1"
         id="stop4597" />
    </linearGradient>
    <inkscape:path-effect
       effect="skeletal"
       id="path-effect3647"
       is_visible="true"
       pattern="M 0,0 0,10 10,5 z"
       copytype="single_stretched"
       prop_scale="1"
       scale_y_rel="false"
       spacing="0"
       normal_offset="0"
       tang_offset="0"
       prop_units="false"
       vertical_pattern="false"
       fuse_tolerance="0" />
    <inkscape:path-effect
       effect="skeletal"
       id="path-effect3643"
       is_visible="true"
       pattern="M 0,0 0,10 10,5 z"
       copytype="single_stretched"
       prop_scale="1"
       scale_y_rel="false"
       spacing="0"
       normal_offset="0"
       tang_offset="0"
       prop_units="false"
       vertical_pattern="false"
       fuse_tolerance="0" />
    <inkscape:path-effect
       effect="skeletal"
       id="path-effect3639"
       is_visible="true"
       pattern="M 0,0 0,10 10,5 z"
       copytype="single_stretched"
       prop_scale="1"
       scale_y_rel="false"
       spacing="0"
       normal_offset="0"
       tang_offset="0"
       prop_units="false"
       vertical_pattern="false"
       fuse_tolerance="0" />
    <inkscape:path-effect
       effect="skeletal"
       id="path-effect3635"
       is_visible="true"
       pattern="M 0,0 0,10 10,5 z"
       copytype="single_stretched"
       prop_scale="1"
       scale_y_rel="false"
       spacing="0"
       normal_offset="0"
       tang_offset="0"
       prop_units="false"
       vertical_pattern="false"
       fuse_tolerance="0" />
    <inkscape:path-effect
       effect="skeletal"
       id="path-effect3631"
       is_visible="true"
       pattern="M 0,0 0,10 10,5 z"
       copytype="single_stretched"
       prop_scale="1"
       scale_y_rel="false"
       spacing="0"
       normal_offset="0"
       tang_offset="0"
       prop_units="false"
       vertical_pattern="false"
       fuse_tolerance="0" />
    <inkscape:path-effect
       effect="skeletal"
       id="path-effect3597"
       is_visible="true"
       pattern="M 0,0 0,10 10,5 z"
       copytype="single_stretched"
       prop_scale="1"
       scale_y_rel="false"
       spacing="0"
       normal_offset="0"
       tang_offset="0"
       prop_units="false"
       vertical_pattern="false"
       fuse_tolerance="0" />
    <inkscape:path-effect
       effect="skeletal"
       id="path-effect3593"
       is_visible="true"
       pattern="M 0,0 0,10 10,5 z"
       copytype="single_stretched"
       prop_scale="1"
       scale_y_rel="false"
       spacing="0"
       normal_offset="0"
       tang_offset="0"
       prop_units="false"
       vertical_pattern="false"
       fuse_tolerance="0" />
    <inkscape:path-effect
       effect="skeletal"
       id="path-effect3589"
       is_visible="true"
       pattern="M 0,0 0,10 10,5 z"
       copytype="single_stretched"
       prop_scale="1"
       scale_y_rel="false"
       spacing="0"
       normal_offset="0"
       tang_offset="0"
       prop_units="false"
       vertical_pattern="false"
       fuse_tolerance="0" />
    <inkscape:path-effect
       effect="skeletal"
       id="path-effect3503"
       is_visible="true"
       pattern="M 0,0 0,10 10,5 z"
       copytype="single_stretched"
       prop_scale="1"
       scale_y_rel="false"
       spacing="0"
       normal_offset="0"
       tang_offset="0"
       prop_units="false"
       vertical_pattern="false"
       fuse_tolerance="0" />
    <inkscape:path-effect
       effect="skeletal"
       id="path-effect3499"
       is_visible="true"
       pattern="M 0,0 0,10 10,5 z"
       copytype="single_stretched"
       prop_scale="1"
       scale_y_rel="false"
       spacing="0"
       normal_offset="0"
       tang_offset="0"
       prop_units="false"
       vertical_pattern="false"
       fuse_tolerance="0" />
    <filter
       id="filter4621"
       inkscape:label="Inner Glow"
       inkscape:menu="Shadows and Glows"
       inkscape:menu-tooltip="Adds a colorizable glow inside"
       color-interpolation-filters="sRGB">
      <feGaussianBlur
         id="feGaussianBlur4623"
         stdDeviation="5.5094499999999993"
         result="result8" />
      <feComposite
         id="feComposite4625"
         in2="result8"
         result="result6"
         in="SourceGraphic"
         operator="in" />
      <feComposite
         id="feComposite4627"
         in2="result6"
         operator="in"
         result="result11" />
      <feFlood
         id="feFlood4629"
         result="result10"
         in="result11"
         flood-opacity="1"
         flood-color="rgb(68,12,84)" />
      <feBlend
         id="feBlend4631"
         in2="result10"
         mode="normal"
         in="result11"
         result="result12" />
      <feComposite
         id="feComposite4633"
         in2="SourceGraphic"
         result="result2"
         operator="in"
         in="result12" />
    </filter>
    <radialGradient
       inkscape:collect="always"
       xlink:href="#linearGradient3782"
       id="radialGradient3796"
       cx="-64.865395"
       cy="168.38602"
       fx="-64.865395"
       fy="168.38602"
       r="31.990211"
       gradientTransform="matrix(1.0047461,-0.30466044,0.62932113,2.5916242,-171.57047,-275.4251)"
       gradientUnits="userSpaceOnUse" />
    <radialGradient
       inkscape:collect="always"
       xlink:href="#linearGradient3782-8"
       id="radialGradient3796-6"
       cx="-64.865395"
       cy="168.38602"
       fx="-64.865395"
       fy="168.38602"
       r="31.990211"
       gradientTransform="matrix(1.0083471,-0.29252165,0.59802194,2.599025,-166.06817,-275.88426)"
       gradientUnits="userSpaceOnUse" />
    <linearGradient
       id="linearGradient3782-8">
      <stop
         style="stop-color:#2fbc78;stop-opacity:0;"
         offset="0"
         id="stop3784-7" />
      <stop
         style="stop-color:#2fbc78;stop-opacity:0.66923076;"
         offset="1"
         id="stop3786-8" />
    </linearGradient>
    <radialGradient
       r="31.990211"
       fy="168.38602"
       fx="-64.865395"
       cy="168.38602"
       cx="-64.865395"
       gradientTransform="matrix(0.91541066,-0.17296737,0.29315933,2.492736,-158.37881,-415.04948)"
       gradientUnits="userSpaceOnUse"
       id="radialGradient3025"
       xlink:href="#linearGradient3782-8"
       inkscape:collect="always" />
    <radialGradient
       r="31.990211"
       fy="168.38602"
       fx="-64.865395"
       cy="168.38602"
       cx="-64.865395"
       gradientTransform="matrix(1.0413187,-0.13412012,0.19159218,2.6600477,-126.19803,-448.41471)"
       gradientUnits="userSpaceOnUse"
       id="radialGradient3025-6"
       xlink:href="#linearGradient3782-8-9"
       inkscape:collect="always" />
    <linearGradient
       id="linearGradient3782-8-9">
      <stop
         style="stop-color:#2fbc78;stop-opacity:0;"
         offset="0"
         id="stop3784-7-1" />
      <stop
         style="stop-color:#2fbc78;stop-opacity:0.66923076;"
         offset="1"
         id="stop3786-8-9" />
    </linearGradient>
    <radialGradient
       r="31.990211"
       fy="168.38602"
       fx="-64.865395"
       cy="168.38602"
       cx="-64.865395"
       gradientTransform="matrix(0.83537391,0.17659725,-0.51799711,2.2405073,-17.708937,-507.74115)"
       gradientUnits="userSpaceOnUse"
       id="radialGradient3059"
       xlink:href="#linearGradient3782-8-9"
       inkscape:collect="always" />
  </defs>
  <sodipodi:namedview
     id="base"
     pagecolor="#ffffff"
     bordercolor="#666666"
     borderopacity="1.0"
     inkscape:pageopacity="0.0"
     inkscape:pageshadow="2"
     inkscape:zoom="0.7"
     inkscape:cx="-34.928641"
     inkscape:cy="755.56211"
     inkscape:document-units="px"
     inkscape:current-layer="svg2"
     showgrid="false"
     inkscape:window-width="472"
     inkscape:window-height="367"
     inkscape:window-x="2106"
     inkscape:window-y="161"
     inkscape:window-maximized="0"
     showborder="false" />
  <metadata
     id="metadata7">
    <rdf:RDF>
      <cc:Work
         rdf:about="">
        <dc:format>image/svg+xml</dc:format>
        <dc:type
           rdf:resource="http://purl.org/dc/dcmitype/StillImage" />
        <dc:title />
      </cc:Work>
    </rdf:RDF>
  </metadata>
  <g
     inkscape:label="Layer 1"
     inkscape:groupmode="layer"
     id="layer1" />
  <path
     style="fill:#e489f7;fill-opacity:1;stroke:none;filter:url(#filter4621)"
     d="m -121.57453,260.41758 c 6.63218,21.53172 7.00286,52.31389 -10.24511,66.80899 -27.92455,23.46764 -91.77767,-34.21571 -109.40471,-2.28144 -20.47569,37.09507 77.91545,64.50141 69.9715,106.12102 -7.80754,40.90498 -114.10696,31.64313 -102.35097,71.63696 10.8653,36.9637 89.00163,-6.81215 113.24407,23.13236 31.8444,39.33454 -50.08847,138.57683 -1.24342,151.82194 43.70145,11.85034 28.38633,-95.2561 67.661418,-117.78863 18.203147,-10.44334 43.066847,-6.21229 62.956558,0.48228 50.872582,17.12293 89.539995,132.77345 128.999716,96.38466 C 143.74435,614.56477 -27.816768,554.93757 -1.2341609,498.69727 17.292016,459.5018 118.79736,524.64149 127.77872,482.22877 137.07149,438.34549 13.603699,457.39034 12.657471,412.54391 11.604613,362.64378 156.32344,375.84365 137.3671,329.67235 119.94689,287.24256 47.893428,361.1306 2.3126655,356.01736 -13.533082,354.23979 -29.168695,346.86316 -41.441538,336.68354 -66.662648,315.76407 -82.750103,285.11509 -97.109626,255.66118 -122.43344,203.71758 -137.85164,146.9722 -149.20923,90.311476 c -11.59885,-57.86435 -21.85296,-116.382377 -15.98567,-176.323012 5.39933,-55.159924 22.54903,-112.822644 52.41589,-160.539524 9.59563,-15.3305 20.960213,-36.99306 39.032792,-37.68745 19.558985,-0.7515 29.3145,48.79368 45.248207,37.42549 14.335464,-10.22789 -27.46273,-34.23544 -18.594732,-49.4497 13.259882,-22.74914 78.277899,14.08398 78.039452,-12.24645 -0.251175,-27.73582 -69.116605,12.92647 -82.424991,-11.40922 -4.025394,-7.36083 5.319594,-16.29024 10.546605,-22.85256 9.688036,-12.16295 43.6954514,-14.53399 36.9112419,-28.52577 -6.4696199,-13.34297 -31.1976779,19.5565 -43.1577309,10.7902 -13.994664,-10.2576 14.030803,-49.61783 -3.162018,-51.95789 -13.011424,-1.77095 -9.452785,24.55786 -12.81511,37.25149 -4.093929,15.45562 6.588333,43.14864 -8.895693,47.1338 -11.390351,2.93156 -19.820821,-15.74589 -22.46948,-27.20532 -5.433309,-23.50725 39.320876,-61.39206 16.927958,-70.37363 -20.273264,-8.1314 -11.177947,54.85909 -32.948081,56.64405 -17.97213,1.47354 -18.14176,-49.39407 -34.4536,-41.70692 -10.48766,4.94244 1.88052,23.55504 6.58049,34.15358 10.94824,24.68858 47.871104,37.77576 48.674667,64.77102 0.632777,21.25782 -14.134577,18.25274 -35.227907,53.19447 -27.39997,45.38885 -48.49386,112.32486 -54.8769,170.75414 -6.55714,60.022966 3.83402,122.937855 14.15855,183.366201 9.58266,56.086279 25.29084,103.799209 44.11078,164.899109 z"
     id="path3757"
     inkscape:connector-curvature="0"
     sodipodi:nodetypes="caaasaaaaaaaaaaaaasaaaaaaaaaaaaaaaaaassasc" />
  <path
     style="fill:none;fill-opacity:1"
     d="m -68.228882,200.87682 c -1.590384,14.55538 -1.336341,29.29677 -2.496759,43.90889 -0.974226,17.57456 -6.109322,35.36173 -17.59467,49.02574 -12.179579,14.62773 -27.260539,27.35616 -44.871909,34.87314 -18.70982,7.2329 -38.99853,2.98418 -58.43252,2.83052 -6.34904,-0.0637 -12.74863,-0.7014 -19.06722,0.1449 13.70318,5.54109 28.14508,10.08158 40.33209,18.6654 8.31421,6.02708 14.33667,15.13195 15.79289,25.37807 2.33972,14.97625 -0.006,30.26842 -3.1798,44.94201 -4.86592,13.87188 -11.06118,27.2903 -17.77924,40.36139 -9.69444,19.00056 -25.60243,34.6527 -44.78733,43.98759 -2.75852,1.45981 -7.50491,3.46117 -1.63602,2.57066 19.99333,-0.42139 39.6471,-5.14074 59.65003,-5.15778 14.40081,-0.44386 27.72949,8.50043 35.21329,20.37668 3.85656,12.58947 -1.77031,25.38817 -5.71669,37.22478 -7.36453,19.06437 -13.82757,38.75757 -15.17645,59.29031 -0.38087,8.12916 -0.98681,16.36571 0.18501,24.45067 12.69401,-15.34023 26.72623,-29.66112 42.11074,-42.31592 12.353045,-9.5674 25.50218,-19.52738 41.163712,-22.61795 5.814185,-1.29492 11.819744,0.16632 16.659582,3.55712 15.293553,9.54639 30.940553,19.01702 48.43642567,23.94383 3.08490993,1.06668 6.20995823,2.04 9.18177143,3.40341 -2.5747374,-16.6082 2.0764039,-33.20316 8.1917059,-48.51889 8.001625,-20.26136 15.855425,-40.58703 22.635266,-61.29616 2.526356,-8.77712 7.806433,-17.58396 16.863885,-20.73624 14.69971,-5.28433 30.593935,-5.29777 45.996852,-6.49707 7.36326,-0.37458 14.7264,-0.85757 22.10103,-0.91638 -19.02721,-7.93695 -39.106781,-13.88784 -56.647464,-24.96971 -8.896181,-6.17082 -17.03991,-15.62354 -16.493897,-27.11628 -0.204409,-13.55783 6.112529,-26.1697 13.005714,-37.47035 9.683206,-14.00502 24.536585,-23.18191 35.450037,-36.11295 4.97109,-5.81781 10.0222,-11.83632 13.7002,-18.5142 -10.21503,2.52004 -20.347005,5.79015 -30.857006,7.10263 -32.04067,4.87016 -65.123651,0.75785 -95.538334,-10.16466 -7.550102,-15.48726 -17.839864,-29.33443 -27.308085,-43.6512 -14.581728,-21.54669 -21.351195,-47.04417 -27.104478,-72.09069 -0.742599,-2.52092 -0.753362,-5.70487 -1.982359,-7.89131 z"
     id="path4591"
     inkscape:connector-curvature="0" />
  <path
     style="fill:url(#radialGradient3796);fill-opacity:1;stroke:none"
     d="m -98.463899,171.85831 c 5.837197,24.03832 13.037148,56.87816 9.635203,72.7653 -3.40195,15.88712 -11.930394,15.81494 -20.864274,18.52389 -8.93385,2.70893 -17.39711,8.03982 -27.50453,-3.85745 -10.1074,-11.89726 -19.99608,-45.24935 -25.50893,-67.95202 -5.51285,-22.70267 -14.48621,-58.38238 -9.18026,-74.90251 5.30596,-16.520078 12.19637,-15.72407 22.02583,-18.704568 9.82945,-2.980494 14.49579,-7.046516 26.34297,4.038128 11.84718,11.08464 19.2168,46.05092 25.053991,70.08923 z"
     id="path4665"
     inkscape:connector-curvature="0"
     sodipodi:nodetypes="zzzzzzzzz" />
  <path
     style="fill:url(#radialGradient3025);fill-opacity:1;stroke:none"
     d="m -139.04849,11.214918 c 2.71916,23.12109 5.75193,54.621662 1.15645,69.094542 -4.59551,14.472863 -12.09797,13.45613 -20.23749,14.994102 -8.13953,1.537964 -16.12871,5.579358 -23.83068,-6.66741 -7.70197,-12.246745 -13.05073,-44.525445 -15.61879,-66.361854 -2.56808,-21.83640565 -6.87644,-56.189119 -0.54063,-71.041801 6.33584,-14.852634 12.32303,-13.34157 21.27849,-15.033715 8.95551,-1.69214 13.47391,-4.973729 22.78968,6.707026 9.31577,11.68074 12.2838,45.188023 15.00297,68.30911 z"
     id="path4665-3"
     inkscape:connector-curvature="0"
     sodipodi:nodetypes="zzzzzzzzz" />
  <path
     style="fill:url(#radialGradient3059);fill-opacity:1;stroke:none"
     d="m -132.6014,-135.53853 c -4.80463,20.78159 -11.92452,48.856324 -20.31214,59.629984 -8.38766,10.773644 -14.48373,7.23989 -21.91159,5.669632 -7.42784,-1.570241 -15.49903,-0.941503 -18.30358,-14.171104 -2.80458,-13.229551 2.57661,-42.793082 7.11427,-62.419972 4.53769,-19.62686 11.44704,-50.59881 21.43856,-61.08039 9.99151,-10.48158 14.64065,-7.06186 22.81313,-5.33419 8.17249,1.72765 13.04429,0.5185 17.40202,13.83564 4.35775,13.31715 -3.43605,43.08884 -8.24067,63.8704 z"
     id="path4665-3-4"
     inkscape:connector-curvature="0"
     sodipodi:nodetypes="zzzzzzzzz" />
</svg>
